<?xml version="1.0" encoding="utf-8"?>
<!-- Generator: Adobe Illustrator 23.0.1, SVG Export Plug-In . SVG Version: 6.00 Build 0)  -->
<svg version="1.1" id="Layer_1" xmlns="http://www.w3.org/2000/svg" xmlns:xlink="http://www.w3.org/1999/xlink" x="0px" y="0px"
	 viewBox="0 0 400 250" style="enable-background:new 0 0 400 250;" xml:space="preserve">
<style type="text/css">
	.st0{fill-rule:evenodd;clip-rule:evenodd;fill:#ED1C24;stroke:#000000;stroke-width:4.252;stroke-miterlimit:22.9256;}
	.st1{fill-rule:evenodd;clip-rule:evenodd;}
	.st2{fill-rule:evenodd;clip-rule:evenodd;fill:#ED1C24;}
</style>
<g>
	<polygon class="st0" points="9.1,190.3 391.7,190.3 391.7,243 9.1,243 9.1,190.3 	"/>
	<path class="st1" d="M45.5,207.7l-2.3,1.7c-1.3-1.6-2.8-2.8-4.5-3.7c-1.8-0.8-3.7-1.3-5.8-1.3c-2.3,0-4.4,0.5-6.4,1.6
		c-2,1.1-3.5,2.6-4.6,4.4c-1.1,1.8-1.6,3.9-1.6,6.2c0,3.5,1.2,6.4,3.6,8.7c2.4,2.3,5.4,3.5,9.1,3.5c4,0,7.4-1.6,10.1-4.7l2.3,1.7
		c-1.4,1.8-3.2,3.2-5.4,4.2c-2.1,1-4.5,1.5-7.2,1.5c-5,0-9-1.7-11.9-5c-2.4-2.8-3.7-6.2-3.7-10.2c0-4.2,1.5-7.7,4.4-10.5
		c3-2.9,6.7-4.3,11.1-4.3c2.7,0,5.1,0.5,7.3,1.6C42.3,204.3,44.1,205.8,45.5,207.7L45.5,207.7z M65,201.7c4.4,0,8,1.4,11,4.3
		c2.9,2.9,4.4,6.4,4.4,10.7c0,4.2-1.5,7.7-4.4,10.6c-2.9,2.9-6.5,4.4-10.7,4.4c-4.3,0-7.9-1.4-10.8-4.3c-2.9-2.9-4.4-6.4-4.4-10.5
		c0-2.7,0.7-5.3,2-7.6c1.3-2.3,3.2-4.2,5.5-5.5C59.8,202.3,62.3,201.7,65,201.7L65,201.7z M65.2,204.5c-2.1,0-4.1,0.6-6.1,1.6
		c-1.9,1.1-3.4,2.6-4.5,4.4c-1.1,1.9-1.6,3.9-1.6,6.2c0,3.4,1.2,6.3,3.6,8.6c2.4,2.3,5.2,3.5,8.6,3.5c2.2,0,4.3-0.5,6.2-1.6
		c1.9-1.1,3.4-2.5,4.4-4.4c1.1-1.9,1.6-3.9,1.6-6.2c0-2.3-0.5-4.3-1.6-6.1c-1.1-1.8-2.6-3.3-4.5-4.4C69.4,205,67.3,204.5,65.2,204.5
		L65.2,204.5z M83.2,225.6l2.4-1.5c1.7,3.1,3.7,4.7,6,4.7c1,0,1.9-0.2,2.7-0.7c0.8-0.4,1.5-1,1.9-1.8c0.4-0.7,0.7-1.5,0.7-2.4
		c0-1-0.3-1.9-1-2.8c-0.9-1.3-2.5-2.8-4.9-4.6c-2.4-1.8-3.9-3.1-4.5-3.9c-1-1.3-1.5-2.8-1.5-4.4c0-1.2,0.3-2.4,0.9-3.4
		c0.6-1,1.5-1.8,2.5-2.4c1.1-0.6,2.3-0.9,3.6-0.9c1.4,0,2.6,0.3,3.8,1c1.2,0.7,2.4,1.9,3.8,3.7l-2.3,1.8c-1.1-1.4-2-2.4-2.8-2.8
		c-0.8-0.5-1.6-0.7-2.5-0.7c-1.2,0-2.1,0.4-2.9,1.1c-0.7,0.7-1.1,1.6-1.1,2.6c0,0.6,0.1,1.2,0.4,1.8c0.3,0.6,0.7,1.2,1.4,1.9
		c0.4,0.4,1.6,1.3,3.7,2.8c2.5,1.8,4.2,3.5,5.1,4.9c0.9,1.4,1.4,2.8,1.4,4.3c0,2.1-0.8,3.9-2.4,5.4c-1.6,1.5-3.5,2.3-5.8,2.3
		c-1.8,0-3.3-0.5-4.8-1.4C85.7,229.3,84.4,227.8,83.2,225.6L83.2,225.6z M104.8,230.9l4.1-28.6h0.5l11.7,23.4l11.6-23.4h0.5
		l4.1,28.6h-2.8l-2.8-20.4l-10.2,20.4h-0.7l-10.3-20.6l-2.8,20.6H104.8L104.8,230.9z M143,202.4h16.5v2.8h-13.6v8.9h13.5v2.8h-13.5
		v11.2h13.5v2.8H143V202.4L143,202.4z M161.7,205.2v-2.8h15.8v2.8h-6.4v25.8h-2.9v-25.8H161.7L161.7,205.2z M181.2,202.4h2.9v28.6
		h-2.9V202.4L181.2,202.4z M217.5,207.7l-2.3,1.7c-1.3-1.6-2.8-2.8-4.5-3.7c-1.8-0.8-3.7-1.3-5.8-1.3c-2.3,0-4.4,0.5-6.4,1.6
		c-2,1.1-3.5,2.6-4.6,4.4c-1.1,1.8-1.6,3.9-1.6,6.2c0,3.5,1.2,6.4,3.6,8.7c2.4,2.3,5.4,3.5,9.1,3.5c4,0,7.4-1.6,10.1-4.7l2.3,1.7
		c-1.4,1.8-3.2,3.2-5.4,4.2c-2.1,1-4.5,1.5-7.2,1.5c-5,0-9-1.7-11.9-5c-2.4-2.8-3.7-6.2-3.7-10.2c0-4.2,1.5-7.7,4.4-10.5
		c3-2.9,6.7-4.3,11.1-4.3c2.7,0,5.1,0.5,7.3,1.6C214.4,204.3,216.1,205.8,217.5,207.7L217.5,207.7z M233.1,230.9l4.1-28.6h0.5
		l11.7,23.4l11.6-23.4h0.5l4.1,28.6h-2.8l-2.8-20.4l-10.2,20.4H249l-10.3-20.6l-2.8,20.6H233.1L233.1,230.9z M283.1,202.4l13.4,28.6
		h-3.1l-4.5-9.4h-12.4l-4.5,9.4h-3.2l13.6-28.6H283.1L283.1,202.4z M282.7,208.4l-5,10.3h9.9L282.7,208.4L282.7,208.4z M301.1,202.4
		h5.7c3.2,0,5.4,0.1,6.5,0.4c1.7,0.4,3.1,1.2,4.2,2.5c1.1,1.3,1.6,2.8,1.6,4.7c0,1.6-0.4,2.9-1.1,4.1c-0.7,1.2-1.8,2.1-3.2,2.7
		c-1.4,0.6-3.3,0.9-5.7,0.9l10.4,13.3H316l-10.3-13.3H304v13.3h-2.9V202.4L301.1,202.4z M304,205.2v9.7l5,0c1.9,0,3.3-0.2,4.3-0.5
		c0.9-0.4,1.6-0.9,2.2-1.7c0.5-0.8,0.8-1.7,0.8-2.7c0-1-0.3-1.8-0.8-2.6c-0.5-0.8-1.2-1.3-2.1-1.7c-0.8-0.3-2.3-0.5-4.2-0.5
		L304,205.2L304,205.2z M325.3,202.4h2.9v10.7l11.5-10.7h3.9l-13.9,12.8l14.9,15.7h-3.8l-12.7-13.3v13.3h-2.9V202.4L325.3,202.4z
		 M349,202.4h16.5v2.8h-13.6v8.9h13.5v2.8h-13.5v11.2h13.5v2.8H349V202.4L349,202.4z M367.7,205.2v-2.8h15.8v2.8h-6.4v25.8h-2.9
		v-25.8H367.7L367.7,205.2z"/>
	<path class="st2" d="M123.8,122.1c1.7,0,2.9,0.4,3.8,1.3c0.8,0.9,1.3,2.1,1.3,3.8c0,12-5.8,23-17.3,33.1c-11.5,10-25.6,15-42.1,15
		c-18.8,0-33.1-5-43-15.2c-9.9-10.1-14.9-24.8-14.9-44c0-15.6,2.3-30.8,7-45.8c4.6-15,10.8-27.3,18.6-36.9
		c6.2-7.6,13.7-13.3,22.6-17c8.9-3.6,19.6-5.5,32-5.5c8.2,0,15.9,0.6,23,1.8c7.1,1.2,13.4,3,18.7,5.3L140,21
		c0.7,0.3,1.2,0.9,1.5,1.6c0.3,0.7,0.5,1.6,0.5,2.7c0,0.3,0,0.7-0.1,1.2c-0.1,0.4-0.2,1.1-0.4,1.7l-6.8,33.3
		c-0.3,2.1-0.9,3.4-1.5,3.9c-0.6,0.6-2,0.8-4.2,0.8h-7.7c-1.6,0-2.8-0.4-3.6-1.2c-0.8-0.8-1.2-2-1.2-3.5c0-0.2,0-0.9,0.1-2
		c0.1-1.1,0.1-2.1,0.1-3c0-11.7-1.6-20-5-24.9c-3.3-4.9-8.8-7.4-16.5-7.4c-5.3,0-10,1.6-14.1,4.7c-4.1,3.1-7.5,7.9-10.3,14.2
		c-2.3,5.3-4.5,11.6-6.6,19.1c-2.1,7.4-4.2,16.1-6.2,25.9c-1.8,9-3.2,17.3-4.2,25.1c-0.9,7.7-1.4,14.8-1.4,21.3
		c0,8.6,1.7,15.2,5.1,19.9c3.4,4.7,8.4,7,14.9,7c6.5,0,12.2-2.3,17.1-6.8c5-4.5,9-11.3,12.2-20.4l0.1-0.2c2.7-8,5.8-12,9.4-12
		L123.8,122.1L123.8,122.1z M181.3,46.8c0.4-2,0.7-3.9,0.9-5.6c0.1-1.7,0.2-3.3,0.2-4.4c0-3-0.8-5.2-2.4-6.8c-1.6-1.6-3.9-2.4-7-2.5
		l-5.5-0.5c-0.2,0-0.5,0.1-1,0.2c-0.5,0.1-0.8,0.2-1,0.3c-0.8,0-1.5-0.3-2.2-0.8c-0.7-0.6-1-1.1-1-1.6c0-4,0.3-6.7,1-7.9
		c0.6-1.2,2.4-1.8,5.2-1.8l8.9,0c6.9,0,13.4-0.1,19.6-0.3c6.2-0.2,12.1-0.5,17.9-1l5.6-0.7h0.8c1,0,1.7,0.2,2.3,0.7
		c0.5,0.5,0.8,1.1,0.8,2l0,0.6l-4.2,21.5c8.4-9.8,16.4-16.8,24-21c7.6-4.1,16.1-6.2,25.6-6.2c9.5,0,16.9,2.2,22.5,6.7
		c5.5,4.4,9.3,11.3,11.3,20.6c8-9.7,15.8-16.7,23.4-20.9c7.6-4.2,16.1-6.3,25.6-6.3c10.8,0,19.3,3.1,25.4,9.3
		c6.1,6.2,9.2,14.7,9.2,25.7c0,6.3-1.4,16.6-4.4,30.9l-0.1,0.8l-12.2,61.7c0,0.2-0.1,0.5-0.1,1c-0.7,4.4-1,7.7-1,9.9
		c0,2.5,0.7,4.5,2,6c1.3,1.5,3.2,2.4,5.7,2.7l5.3,0.7c2.1,0.2,3.5,0.6,4.2,1.1c0.6,0.5,0.9,1.3,0.9,2.4c0,3.1-0.4,5.4-1.4,6.7
		c-0.9,1.3-2.5,2-4.9,2c-0.4,0-1.3-0.1-2.6-0.2c-8.7-0.7-17.5-1.1-26.2-1.1c-6.5,0-13.5,0.3-21,1H331l-3.9,0.3h-0.9
		c-0.7,0-1.2-0.2-1.7-0.7c-0.4-0.4-0.6-1-0.6-1.6c0-0.1,0.9-3.1,2.6-9c1.7-5.9,3.2-12.1,4.5-18.5l13.6-70.3
		c0.8-3.7,1.3-7.2,1.7-10.4c0.4-3.3,0.6-5.8,0.6-7.8c0-5.2-1.3-9.2-4-12c-2.6-2.9-6.4-4.4-11.3-4.4c-7.2,0-13.8,3-20,9.1
		c-6.1,6.1-10.1,13.5-11.8,22.4l-13.6,70.9c-0.2,1-0.4,2.2-0.7,3.6c-0.6,2.6-0.9,4.6-0.9,5.9c0,2.7,0.7,5,2.1,6.8
		c1.4,1.8,3.3,2.9,5.6,3.2l5.3,0.7c2.3,0.3,3.8,0.7,4.4,1.2c0.6,0.4,0.9,1.2,0.9,2.3c0,3.1-0.4,5.4-1.3,6.7c-0.9,1.3-2.6,2-4.9,2
		c-0.6,0-2-0.1-4.4-0.2c-10.2-0.7-20.1-1.1-29.5-1.1c-9.6,0-19.3,0.4-29.2,1.1c-1.9,0.1-3.1,0.2-3.5,0.2c-1.4,0-2.6-0.3-3.3-0.9
		c-0.8-0.6-1.2-1.5-1.2-2.7c0-3,0.3-5.2,1-6.6c0.6-1.3,1.8-2.1,3.5-2.3l3.9-0.3c3.7-0.2,6.4-1.5,8.4-3.9c1.9-2.4,3.6-7.6,5.1-15.6
		l13.5-68c0.7-3.5,1.2-6.9,1.7-10.2c0.4-3.2,0.6-5.9,0.6-7.8c0-5.2-1.4-9.2-4.1-12c-2.7-2.9-6.5-4.4-11.5-4.4c-7.1,0-13.8,3-19.9,9
		c-6.1,6-10.1,13.5-11.8,22.5l-13.9,70.9c-0.6,3.3-1,5.7-1.2,7.4c-0.2,1.6-0.3,3-0.3,4.1c0,2.6,0.5,4.5,1.5,5.7
		c0.9,1.2,2.6,2,4.9,2.3l3.7,0.7c1.8,0.3,3,0.7,3.5,1.2c0.4,0.5,0.7,1.2,0.7,2.2c0,3.1-0.4,5.4-1.4,6.7c-0.9,1.3-2.7,2-5.1,2
		c-0.7,0-2.3-0.1-5-0.3c-9.7-0.6-18.9-1-27.7-1c-10,0-19.9,0.4-29.9,1.1c-1.8,0.1-3,0.2-3.5,0.2c-1.5,0-2.6-0.3-3.4-1
		c-0.8-0.6-1.2-1.5-1.2-2.6c0-5.5,2-8.5,6.1-8.9c0,0,0.1,0,0.1,0l5.2-0.7c4-0.4,7.2-1.6,8.8-4.3C170.6,133.5,176.3,72.5,181.3,46.8
		L181.3,46.8z"/>
	<path class="st1" d="M123.8,120c1.1,0,2.1,0.1,2.9,0.4c0.9,0.3,1.7,0.8,2.4,1.4l0.1,0.1c0.6,0.7,1.1,1.5,1.4,2.4
		c0.3,0.9,0.4,1.8,0.4,2.9c0,6.4-1.5,12.5-4.6,18.3c-3,5.7-7.5,11.2-13.5,16.4l0,0l0,0l0,0c-1.7,1.5-3.4,2.8-5.2,4
		c-1.8,1.2-3.6,2.4-5.5,3.4c-9.7,5.4-20.6,8.1-32.9,8.1h0v0c-9.6,0-18.2-1.3-25.5-3.9c-1.2-0.4-2.4-0.9-3.5-1.4
		c-5.9-2.6-11.1-6.1-15.4-10.5l0,0l0,0l0,0c-1.5-1.5-2.8-3.1-4.1-4.7c-1.2-1.7-2.4-3.4-3.4-5.3c-5.3-9.5-8-21.3-8-35.5
		c0-7.9,0.6-15.7,1.8-23.4c1.2-7.7,2.9-15.4,5.3-23v0l0,0l0,0c0.7-2.2,1.3-4.2,2-6.2c0.7-2,1.5-4,2.2-5.9c4-9.9,8.9-18.4,14.6-25.5
		l0,0c3.2-3.9,6.8-7.4,10.7-10.3c3.9-2.9,8.2-5.4,12.8-7.3h0l0,0c1.3-0.5,2.6-1,4-1.5c1.4-0.5,2.8-0.9,4.2-1.3
		c7.3-1.9,15.5-2.9,24.7-2.9v0h0v0c4.2,0,8.2,0.2,12.1,0.5c0.3,0,1,0.1,1.9,0.2c3.2,0.3,6.4,0.7,9.3,1.2h0c3.6,0.6,7,1.4,10.2,2.3
		c3.2,0.9,6.2,1.9,8.9,3.1l0.1,0l6.5,3.1l0,0l0,0c0.2,0.1,0.3,0.2,0.5,0.3c0.1,0.1,0.3,0.2,0.4,0.3c0.7,0.5,1.2,1.2,1.6,1.9l0,0.1
		c0.3,0.5,0.4,1.1,0.6,1.8c0.1,0.6,0.1,1.2,0.1,1.9l0,0v0h0c0,0.3,0,0.5,0,0.8v0l0,0.1l0,0c0,0.3-0.1,0.5-0.1,0.7l0,0.1
		c0,0.1-0.1,0.4-0.2,0.9c-0.1,0.3-0.2,0.6-0.3,0.9l-6.8,33.1h0l0,0c-0.1,0.3-0.1,0.6-0.2,0.9c-0.1,0.3-0.1,0.6-0.2,0.8
		c-0.4,1.6-1.1,2.8-1.8,3.4l0,0c-0.6,0.5-1.4,0.9-2.5,1.1c-0.9,0.2-1.9,0.3-3.1,0.3h-7.7c-1,0-1.9-0.1-2.8-0.4
		c-0.9-0.3-1.7-0.8-2.4-1.5v0c-0.6-0.6-1.1-1.4-1.4-2.3c-0.3-0.8-0.4-1.7-0.4-2.7v0h0c0-0.2,0-0.5,0-0.8l0-0.2v0l0.1-1.1l0,0
		c0.1-0.6,0.1-1.1,0.1-1.5c0-0.4,0-0.8,0-1.3c0-5.7-0.4-10.6-1.2-14.6c-0.8-3.9-1.9-6.9-3.4-9.1l0,0c-1.4-2.1-3.3-3.7-5.7-4.8
		c-2.5-1.1-5.5-1.7-9.1-1.7l0,0v0c-2.4,0-4.7,0.4-6.8,1.1c-0.3,0.1-0.6,0.2-1,0.4c-1.7,0.7-3.4,1.6-4.9,2.8l0,0
		c-1.9,1.4-3.6,3.3-5.2,5.5c-1.6,2.3-3.1,4.9-4.5,7.9l0,0c-1.2,2.6-2.3,5.5-3.3,8.5c-1.1,3.1-2.1,6.5-3.2,10.2l0,0v0
		c-0.3,1-0.6,2-0.9,3.2c-0.3,1-0.5,2.1-0.9,3.3c-1.5,5.9-3,12.3-4.4,19.3c-0.9,4.4-1.7,8.7-2.4,12.9c-0.7,4.2-1.3,8.2-1.8,12l0,0
		c-0.5,3.9-0.8,7.5-1.1,11c-0.2,3.5-0.4,6.8-0.4,10.1v0h0c0,4.1,0.4,7.8,1.2,10.9c0.1,0.4,0.3,0.9,0.4,1.5c0.8,2.4,1.8,4.5,3.1,6.3
		h0l0,0c0.4,0.6,0.9,1.1,1.3,1.6c0.5,0.5,1,0.9,1.5,1.3c2.7,2.1,6.1,3.2,10.3,3.2c3,0,5.8-0.5,8.3-1.6c2.6-1,5.1-2.6,7.3-4.7
		c2.3-2.1,4.4-4.8,6.4-8c2-3.3,3.7-7.1,5.2-11.5l0.1-0.4l0.1-0.2c1.4-4,2.9-7.1,4.6-9.2c2-2.5,4.2-3.8,6.7-3.8L123.8,120L123.8,120
		L123.8,120z M125.3,124.5c-0.4-0.1-0.9-0.2-1.5-0.2v0h-12.5c-1.1,0-2.2,0.7-3.3,2.2c-1.4,1.8-2.8,4.6-4,8.4l-0.1,0.4l-0.2,0.2
		c-1.6,4.5-3.4,8.5-5.5,11.9c-2.1,3.6-4.5,6.6-7.2,9c-2.7,2.4-5.5,4.3-8.6,5.5c-3.1,1.2-6.4,1.9-9.9,1.9c-5.2,0-9.5-1.4-12.9-4.1
		c-0.7-0.5-1.3-1.1-1.9-1.7c-0.6-0.6-1.2-1.3-1.7-2l0,0l0,0c-1.6-2.1-2.8-4.6-3.7-7.5c-0.2-0.5-0.3-1-0.5-1.7
		c-0.9-3.5-1.4-7.5-1.4-12h0v0c0-3.3,0.1-6.7,0.4-10.4c0.2-3.6,0.6-7.4,1.1-11.2l0,0c0.5-4,1.1-8,1.8-12.2c0.7-4.2,1.5-8.5,2.4-13.1
		c1.5-7.2,3-13.7,4.5-19.5c0.3-1,0.6-2.2,0.9-3.4c0.3-1,0.6-2.1,0.9-3.2h0c1-3.7,2.1-7.2,3.2-10.5c1.1-3.3,2.3-6.2,3.4-8.9l0,0
		c1.5-3.3,3.1-6.2,4.9-8.7c1.8-2.5,3.8-4.7,6-6.4l0,0c1.9-1.4,3.8-2.5,5.9-3.4c0.3-0.1,0.8-0.3,1.2-0.4c2.6-0.8,5.3-1.3,8.2-1.3v0h0
		c4.2,0,7.8,0.7,10.8,2c3.1,1.4,5.6,3.5,7.5,6.3l0,0c1.8,2.7,3.2,6.3,4,10.7c0.9,4.3,1.3,9.4,1.3,15.4c0,0.4,0,0.9,0,1.5
		c0,0.6-0.1,1.2-0.1,1.7l0,0c0,0.1,0,0.5-0.1,1.1l0,0l0,0.2c0,0.3,0,0.5,0,0.5h0v0c0,0.5,0.1,1,0.2,1.3c0.1,0.3,0.2,0.5,0.4,0.7
		l0.1,0.1c0.1,0.2,0.4,0.3,0.6,0.4c0.4,0.1,0.8,0.2,1.4,0.2l7.7,0c1,0,1.7-0.1,2.2-0.2c0.3-0.1,0.5-0.1,0.5-0.2l0,0
		c0.1-0.1,0.3-0.5,0.5-1.3c0.1-0.2,0.1-0.4,0.2-0.6c0.1-0.2,0.1-0.5,0.1-0.7l0,0l0-0.1l6.8-33.3l0-0.1l0-0.1
		c0.1-0.3,0.2-0.5,0.2-0.8c0-0.1,0.1-0.4,0.2-0.7h0c0-0.2,0.1-0.3,0.1-0.4l0,0l0-0.1l0,0c0-0.2,0-0.3,0-0.3l0,0v0h0
		c0-0.4,0-0.8-0.1-1.2c0-0.3-0.1-0.5-0.2-0.7l0,0c-0.1-0.2-0.2-0.4-0.4-0.5c0,0,0,0-0.1-0.1c0,0-0.1,0-0.1,0l-6.5-3.1l0,0
		c-2.5-1.1-5.3-2.1-8.3-2.9c-3-0.9-6.3-1.6-9.8-2.2l0,0c-2.9-0.5-5.9-0.9-9-1.2c-0.3,0-0.9-0.1-1.8-0.2c-3.8-0.3-7.7-0.5-11.7-0.5v0
		h0v0c-8.8,0-16.7,0.9-23.6,2.8c-1.4,0.4-2.7,0.8-3.9,1.2c-1.3,0.4-2.5,0.9-3.7,1.4l0,0c-4.3,1.8-8.3,4-11.9,6.8
		c-3.6,2.7-6.9,5.9-9.9,9.6l0,0c-5.5,6.8-10.1,14.9-14,24.4c-0.8,1.9-1.5,3.8-2.2,5.7c-0.7,2-1.4,4-2,6v0l0,0l0,0
		c-2.3,7.4-4,14.8-5.2,22.4c-1.1,7.5-1.7,15.1-1.7,22.8c0,13.5,2.5,24.6,7.4,33.4c0.9,1.7,2,3.3,3.1,4.8c1.1,1.5,2.4,3,3.7,4.3l0,0
		l0,0l0,0c3.9,4,8.6,7.2,14.1,9.6c1.1,0.5,2.2,0.9,3.3,1.3c7,2.4,15,3.7,24.1,3.7v0h0c11.5,0,21.8-2.5,30.8-7.5c1.7-1,3.4-2,5.1-3.2
		c1.7-1.2,3.3-2.4,4.8-3.8l0,0l0,0l0,0c5.6-4.8,9.7-9.9,12.5-15.1c2.7-5.2,4.1-10.6,4.1-16.3c0-0.6-0.1-1.1-0.2-1.5
		c-0.1-0.3-0.3-0.6-0.4-0.8C125.9,124.7,125.6,124.6,125.3,124.5L125.3,124.5z M179.2,46.4c0.2-1.1,0.4-2,0.5-2.8
		c0.1-0.8,0.2-1.7,0.3-2.5l0,0c0.1-0.9,0.1-1.8,0.2-2.4c0-0.7,0.1-1.3,0.1-1.9c0-1.3-0.2-2.3-0.5-3.2c-0.3-0.8-0.7-1.5-1.3-2.1
		c-0.6-0.6-1.3-1-2.1-1.3c-1-0.3-2.1-0.5-3.4-0.6l-0.1,0l-5.3-0.5c0,0,0,0,0,0h0c-0.1,0-0.3,0.1-0.5,0.1c-0.2,0-0.3,0.1-0.4,0.1
		c0,0,0,0,0,0l-0.5,0.3h-0.6h0v0c-0.7,0-1.3-0.1-1.9-0.4c-0.2-0.1-0.3-0.1-0.3-0.1c-0.5-0.2-1-0.5-1.4-0.9l0,0
		c-0.5-0.4-0.9-0.8-1.2-1.3c-0.4-0.6-0.6-1.3-0.6-2l0,0c0-2.1,0.1-3.9,0.3-5.3c0.2-1.6,0.6-2.8,1-3.7l0,0c0.2-0.3,0.4-0.6,0.6-0.9
		c0.2-0.3,0.5-0.5,0.8-0.7c1.3-0.9,3.2-1.3,5.6-1.3l8.9,0c3.8,0,7.1,0,10-0.1c3.2,0,6.4-0.1,9.5-0.2l0,0c3-0.1,6-0.2,9.1-0.4
		c2.9-0.1,5.8-0.3,8.7-0.6l0,0l5.5-0.7l0.1,0h0.1h0.8c0.7,0,1.3,0.1,1.9,0.3c0.7,0.2,1.2,0.5,1.7,0.9l0.1,0.1c0.5,0.5,0.9,1,1.1,1.6
		c0.2,0.6,0.4,1.2,0.4,1.9v0.6v0.2l0,0.2l-2.7,14c2.5-2.6,4.9-5,7.3-7.1c4.1-3.6,8.1-6.5,12.1-8.7h0c4-2.2,8.1-3.8,12.6-4.9
		c4.4-1.1,9.1-1.6,14-1.6c4.9,0,9.4,0.6,13.3,1.8c4,1.2,7.5,3,10.5,5.4l0,0c3,2.4,5.5,5.4,7.5,9.1c1.4,2.6,2.6,5.4,3.5,8.6
		c0.2-0.3,0.5-0.5,0.7-0.8c1.1-1.2,2.2-2.5,3.4-3.7c5.8-6,11.6-10.6,17.2-13.8l0,0c4-2.2,8.2-3.8,12.6-4.9c4.5-1.1,9.1-1.7,14-1.7
		l0,0v0c5.7,0,10.7,0.8,15.2,2.4c0.7,0.3,1.4,0.5,2.2,0.9c3.6,1.6,6.8,3.8,9.5,6.6l0,0l0,0l0,0c0.9,0.9,1.8,1.9,2.6,2.9
		c0.8,1,1.5,2.1,2.2,3.2c3.4,5.7,5.1,12.8,5.1,21l0,0h0c0,3.3-0.4,7.5-1.1,12.8c-0.2,1.1-0.3,2-0.4,2.6c-0.7,4.5-1.7,9.8-2.9,15.9h0
		l-0.1,0.8v0l-12.1,61.6c0,0.1,0,0.3-0.1,0.5c0,0.3-0.1,0.5-0.1,0.7l0,0c-0.1,0.4-0.1,0.9-0.2,1.6c-0.1,0.8-0.2,1.3-0.2,1.6
		c-0.3,2.6-0.5,4.6-0.5,6.2v0h0c0,1,0.1,1.9,0.4,2.7c0,0.1,0.1,0.2,0.1,0.4c0.2,0.6,0.5,1.1,0.9,1.5l0,0c0.1,0.1,0.3,0.3,0.4,0.4
		c0.1,0.1,0.3,0.2,0.5,0.4l0,0c0.9,0.6,2.1,1,3.6,1.2v0l5.3,0.7l0,0c1.2,0.1,2.2,0.3,2.9,0.5c1,0.2,1.8,0.6,2.3,1
		c0.6,0.5,1.1,1.1,1.4,1.9c0.3,0.6,0.4,1.4,0.4,2.2l0,0c0,1.7-0.1,3.2-0.4,4.5c-0.3,1.4-0.7,2.6-1.4,3.5l0,0c-0.7,1-1.6,1.7-2.8,2.2
		c-1.1,0.4-2.3,0.7-3.7,0.7l0,0v0c-0.3,0-0.7,0-1.1,0l-0.2,0h0c-0.5,0-1-0.1-1.5-0.1l0,0c-1.3-0.1-2.5-0.2-3.6-0.3
		c-1.3-0.1-2.5-0.2-3.6-0.2c-6.2-0.4-12.5-0.6-18.8-0.6c-3.3,0-6.7,0.1-10,0.2c-3.4,0.2-7,0.4-10.8,0.7l-0.2,0h-0.2l-3.8,0.3l-0.2,0
		h-0.9c-0.6,0-1.2-0.1-1.7-0.3c-0.6-0.2-1-0.6-1.5-1l-0.1-0.1c-0.4-0.4-0.6-0.8-0.8-1.3c-0.2-0.5-0.3-1.1-0.3-1.7v0l0-0.1
		c0-0.4,0.8-3.1,2.4-8.5l0.3-1.1l0,0c0.9-2.9,1.7-5.9,2.4-9c0.7-3,1.4-6.1,2.1-9.4l0,0L342.5,71l0,0c0.4-1.8,0.7-3.6,1-5.3
		c0.3-1.6,0.5-3.3,0.7-5l0,0c0.2-1.6,0.3-3,0.4-4.3c0.1-1.2,0.1-2.3,0.1-3.3v0h0c0-2.3-0.3-4.4-0.9-6.2c-0.1-0.2-0.2-0.5-0.3-0.8
		c-0.6-1.4-1.3-2.6-2.2-3.5l0,0l0,0l0,0c-0.3-0.3-0.6-0.7-1-0.9c-0.4-0.3-0.7-0.6-1.1-0.8c-2-1.3-4.6-1.9-7.7-1.9
		c-3.3,0-6.5,0.7-9.5,2.1c-3.1,1.4-6.1,3.6-9,6.4l0,0l0,0l0,0c-0.8,0.8-1.6,1.6-2.3,2.5c-0.7,0.9-1.4,1.8-2.1,2.6
		c-3.4,4.7-5.6,10-6.8,16.1l0,0l-13.6,70.9l0,0l0,0v0l-0.2,1c-0.2,1-0.4,2.1-0.5,2.6l0,0c-0.3,1.2-0.5,2.3-0.6,3.3
		c-0.1,0.9-0.2,1.6-0.2,2.2l0,0h0c0,1.1,0.2,2.1,0.5,3.1c0.1,0.2,0.1,0.3,0.1,0.4c0.3,0.7,0.6,1.4,1.1,2l0,0l0,0
		c0.1,0.2,0.3,0.4,0.5,0.5c0.2,0.2,0.3,0.3,0.5,0.5c0.9,0.7,2,1.2,3.2,1.4l0,0l5.3,0.7h0l0,0c0.3,0,0.7,0.1,1,0.2
		c0.4,0.1,0.7,0.1,0.9,0.2c1.6,0.3,2.8,0.7,3.5,1.2c0.7,0.4,1.2,1.1,1.5,1.8c0.3,0.6,0.4,1.4,0.4,2.2l0,0c0,3.6-0.6,6.2-1.7,7.9v0
		l0,0l-0.1,0.1c-0.2,0.3-0.4,0.5-0.7,0.8c-0.2,0.2-0.5,0.4-0.8,0.6c-1.3,0.9-3,1.4-5.1,1.4c-0.2,0-0.7,0-1.6-0.1
		c-0.8,0-1.8-0.1-2.9-0.1l-0.1,0c-5.2-0.4-10.2-0.6-15-0.8c-4.8-0.2-9.5-0.3-14.3-0.3h0v0c-4.7,0-9.5,0.1-14.4,0.3
		c-0.7,0-1.5,0.1-2.4,0.1c-4,0.2-8.1,0.4-12.2,0.7l0,0c-0.9,0.1-1.7,0.1-2.3,0.1c-0.6,0-1,0-1.3,0v0h0v0c-0.9,0-1.7-0.1-2.5-0.3
		c-0.1,0-0.3-0.1-0.4-0.1c-0.7-0.2-1.3-0.5-1.8-0.9l0,0c-0.7-0.5-1.2-1.2-1.5-2c-0.3-0.7-0.5-1.6-0.5-2.5v0h0c0-1.6,0.1-3,0.3-4.2
		c0-0.3,0.1-0.5,0.1-0.6c0.2-1,0.5-1.9,0.9-2.7l0,0c0.1-0.3,0.3-0.5,0.4-0.8c0.2-0.2,0.4-0.5,0.6-0.7c1-1.1,2.4-1.8,4.1-2l0.1,0
		l3.9-0.3h0.1c1.6-0.1,2.9-0.4,4.1-0.9c1.1-0.5,2-1.2,2.8-2.2l0,0c0.8-1,1.5-2.7,2.3-5c0.8-2.5,1.6-5.7,2.4-9.6h0l13.5-68v0
		c0.4-1.8,0.7-3.5,0.9-5.1c0.3-1.7,0.5-3.3,0.7-4.9l0,0c0.2-1.6,0.4-3,0.5-4.3c0.1-1.2,0.2-2.3,0.2-3.3l0,0h0c0-2.3-0.3-4.4-0.9-6.2
		c-0.1-0.3-0.2-0.6-0.3-0.8c-0.6-1.4-1.3-2.6-2.3-3.6h0c-1.1-1.2-2.5-2.1-4.1-2.7c-1.7-0.6-3.6-1-5.8-1h0v0c-3.2,0-6.4,0.7-9.4,2.1
		c-0.5,0.2-1,0.5-1.5,0.7c-2.6,1.4-5,3.2-7.5,5.6l0,0l0,0l0,0c-0.8,0.8-1.6,1.6-2.3,2.5c-0.7,0.9-1.4,1.7-2.1,2.6
		c-3.4,4.7-5.6,10.1-6.8,16.2v0l-13.9,70.9l0,0c0,0.2,0,0.2-0.2,1.3c-0.1,0.6-0.2,1-0.2,1.2c-0.3,2-0.6,3.5-0.7,4.7
		c-0.1,0.8-0.2,1.5-0.2,2.1c0,0.6-0.1,1.2-0.1,1.7v0h0c0,1.1,0.1,2.1,0.3,2.9c0,0.1,0.1,0.2,0.1,0.3c0.2,0.5,0.4,0.9,0.6,1.1
		l0.1,0.1c0.3,0.3,0.6,0.6,1.1,0.8c0.6,0.3,1.4,0.5,2.4,0.6l0.1,0l3.7,0.7c1,0.2,1.9,0.4,2.6,0.6c0.9,0.3,1.6,0.7,2,1.2l0.1,0.1
		c0.4,0.5,0.7,1,1,1.7c0.2,0.6,0.3,1.2,0.3,2c0,1.7-0.1,3.2-0.4,4.5c-0.3,1.4-0.8,2.5-1.4,3.4l0,0l0,0l-0.1,0.1
		c-0.2,0.3-0.4,0.5-0.7,0.8c-0.3,0.2-0.5,0.5-0.8,0.7c-1.4,0.9-3.1,1.4-5.3,1.4c-0.4,0-1,0-1.9-0.1c-0.9-0.1-2-0.1-3.2-0.3l0,0
		c-4.9-0.3-9.6-0.5-14.1-0.7c-4.6-0.2-9.1-0.2-13.5-0.2v0c-5.1,0-10,0.1-14.9,0.3c-4.9,0.2-9.8,0.5-14.9,0.8l0,0l0,0l-0.7,0h0
		l-0.7,0c-1.1,0.1-1.9,0.1-2.2,0.1c-0.9,0-1.8-0.1-2.6-0.3c-0.8-0.2-1.6-0.6-2.2-1.1c-0.2-0.1-0.3-0.3-0.5-0.4l0,0l0,0l0,0
		c-0.2-0.2-0.3-0.3-0.5-0.5c-0.7-0.9-1.1-2.1-1.1-3.4v0h0c0-0.9,0-1.7,0.1-2.4c0.1-0.8,0.2-1.5,0.4-2.2c1.1-3.9,3.6-6,7.5-6.4l0.2,0
		h0.1l5.1-0.6l0.1,0l0,0c0.5,0,1-0.1,1.5-0.2c0.5-0.1,0.9-0.2,1.3-0.3c2-0.5,3.5-1.4,4.3-2.7l0,0l0,0v0c8.9-14.7,14.4-51.4,18.6-80
		C176.5,62.6,177.9,53.2,179.2,46.4L179.2,46.4z M183.9,44.2c-0.2,1.1-0.3,2-0.5,3c-1.3,6.8-2.7,16.1-4.2,26.4
		c-4.3,28.9-9.8,66.1-19.1,81.6l0,0l0,0c-1.5,2.4-3.9,3.9-6.9,4.7c-0.6,0.1-1.1,0.3-1.7,0.4c-0.5,0.1-1.1,0.2-1.8,0.2l0,0v0
		l-5.2,0.7l-0.2,0h-0.1h-0.1c-1.9,0.2-3.1,1.3-3.6,3.2c-0.1,0.5-0.2,1-0.3,1.6c-0.1,0.6-0.1,1.3-0.1,1.9h0v0c0,0.3,0.1,0.6,0.2,0.7
		c0,0,0,0,0.1,0.1l0,0c0,0,0.1,0.1,0.1,0.1l0,0l0.1,0l0.1,0.1c0.2,0.1,0.4,0.3,0.7,0.3c0.4,0.1,0.8,0.2,1.4,0.2c0.3,0,1,0,1.9-0.1
		l0.6,0v0l0.7,0h0v0c4.9-0.4,9.9-0.6,15-0.8c5.1-0.2,10.1-0.3,15-0.3v0c4.5,0,9,0.1,13.6,0.2c4.7,0.2,9.5,0.4,14.2,0.7h0
		c1.4,0.1,2.5,0.2,3.2,0.3c0.7,0.1,1.3,0.1,1.6,0.1c1.3,0,2.2-0.2,2.9-0.6c0.1-0.1,0.2-0.1,0.3-0.2c0,0,0.1-0.1,0.1-0.2h0l0.1-0.1
		c0.3-0.4,0.5-1,0.7-1.9c0.2-1,0.3-2.2,0.3-3.6c0-0.3,0-0.5-0.1-0.7c0,0,0-0.1,0-0.1c-0.1,0-0.2-0.1-0.4-0.1
		c-0.5-0.2-1.1-0.3-1.9-0.5l-3.6-0.7l0,0c-1.4-0.2-2.6-0.5-3.6-1c-1.1-0.5-2-1.2-2.7-2.1l0,0c-0.6-0.7-1-1.5-1.3-2.5
		c-0.1-0.2-0.1-0.4-0.2-0.6c-0.3-1.1-0.4-2.4-0.4-3.9h0v0c0-0.6,0-1.2,0.1-2c0.1-0.7,0.1-1.5,0.2-2.3c0.1-1.2,0.4-2.9,0.8-4.9
		c0.1-0.6,0.2-1,0.2-1.2c0-0.2,0-0.2,0.2-1.3l0,0v0l13.9-70.9l0,0c1.3-6.8,3.8-12.7,7.6-17.9c0.7-1,1.5-2,2.3-2.9
		c0.8-0.9,1.7-1.8,2.6-2.7l0,0l0,0l0,0c2.7-2.6,5.5-4.8,8.5-6.3c0.6-0.3,1.2-0.6,1.7-0.9c3.6-1.6,7.3-2.4,11.2-2.4l0,0h0
		c2.7,0,5.2,0.4,7.3,1.2c2.2,0.8,4.1,2.1,5.7,3.8l0,0c1.3,1.4,2.3,3,3.1,4.8c0.2,0.4,0.3,0.7,0.4,1.1c0.8,2.2,1.1,4.7,1.1,7.6h0v0
		c0,1-0.1,2.2-0.2,3.6c-0.1,1.3-0.3,2.8-0.5,4.5l0,0c-0.2,1.7-0.5,3.4-0.8,5.1c-0.3,1.8-0.6,3.6-0.9,5.2l0,0l-13.5,68v0
		c-0.8,4-1.6,7.4-2.5,10.1c-0.9,2.8-1.9,5-3,6.4l0,0c-1.2,1.5-2.6,2.6-4.3,3.4c-1.6,0.8-3.5,1.2-5.6,1.3l0,0l-3.9,0.3v0
		c-0.6,0.1-1.1,0.3-1.4,0.7c-0.1,0.1-0.1,0.1-0.2,0.2c-0.1,0.1-0.1,0.2-0.2,0.2l0,0l0,0c-0.2,0.4-0.4,0.9-0.5,1.6
		c0,0.2-0.1,0.4-0.1,0.4c-0.2,1-0.2,2.2-0.2,3.6l0,0v0c0,0.3,0,0.6,0.1,0.8c0,0.1,0.1,0.2,0.2,0.3l0.1,0c0.1,0.1,0.2,0.2,0.4,0.2
		c0.1,0,0.1,0,0.1,0c0.4,0.1,0.8,0.2,1.4,0.2v0h0v0c0.1,0,0.5,0,1.1,0c0.5,0,1.3-0.1,2.3-0.1v0c4.1-0.3,8.2-0.5,12.4-0.7
		c0.7,0,1.5-0.1,2.4-0.1c4.9-0.2,9.7-0.3,14.5-0.3v0h0c4.6,0,9.4,0.1,14.5,0.3c5,0.2,10.1,0.5,15.1,0.8l0,0c1.2,0.1,2.1,0.1,2.8,0.1
		c0.6,0,1.1,0,1.5,0c1.2,0,2.1-0.2,2.7-0.6c0.1-0.1,0.2-0.1,0.2-0.2c0.1-0.1,0.1-0.1,0.2-0.2h0l0,0h0l0,0c0.6-1,0.9-2.8,0.9-5.5l0,0
		c0-0.2,0-0.4-0.1-0.6l0,0c-0.2-0.1-0.8-0.3-1.8-0.5c-0.3-0.1-0.5-0.1-0.8-0.1c-0.3,0-0.6-0.1-0.9-0.1l0,0l0,0l-5.3-0.7h0
		c-2.1-0.3-3.9-1.1-5.4-2.3c-0.3-0.3-0.6-0.5-0.8-0.8c-0.3-0.3-0.5-0.6-0.8-0.9l0,0l0,0c-0.7-0.9-1.3-1.9-1.7-3.1
		c-0.1-0.3-0.2-0.5-0.2-0.7c-0.4-1.3-0.6-2.8-0.6-4.4l0,0v0c0-0.8,0.1-1.7,0.2-2.8c0.1-1,0.4-2.2,0.7-3.6l0,0c0.3-1.4,0.4-2,0.5-2.5
		c0.1-0.7,0.1-0.7,0.2-1h0l13.6-70.9v0c1.3-6.7,3.8-12.6,7.6-17.8c0.7-1,1.5-2,2.3-2.9c0.8-0.9,1.7-1.9,2.6-2.7l0,0l0,0h0l0,0
		c3.2-3.2,6.6-5.7,10.2-7.3c3.6-1.7,7.4-2.5,11.3-2.5c3.9,0,7.3,0.9,10,2.6c0.6,0.4,1.1,0.7,1.5,1.1c0.5,0.4,1,0.9,1.4,1.3l0,0
		c1.3,1.4,2.3,3,3.1,4.8c0.1,0.3,0.2,0.7,0.4,1.1c0.7,2.2,1.1,4.7,1.1,7.6h0v0c0,1-0.1,2.2-0.2,3.6c-0.1,1.4-0.3,2.8-0.5,4.5h0
		c-0.2,1.6-0.4,3.3-0.7,5.1c-0.3,1.8-0.6,3.6-1,5.5l-13.6,70.2v0c-0.6,3.1-1.3,6.3-2.1,9.5c-0.8,3.1-1.6,6.2-2.4,9.2v0l-0.3,1.1
		c-1.4,4.7-2.1,7-2.2,7.4c0,0,0,0,0,0c0,0,0,0,0,0.1c0,0,0.1,0,0.1,0h0.8l3.8-0.3l0.2,0h0.2c3.7-0.3,7.3-0.5,10.9-0.7
		c3.6-0.2,7-0.3,10.2-0.3c6.3,0,12.6,0.2,19,0.6c1.3,0.1,2.6,0.2,3.7,0.2c1.3,0.1,2.6,0.2,3.7,0.3l0,0c0.7,0.1,1.1,0.1,1.4,0.1l0,0
		l0.2,0c0.4,0,0.7,0,0.8,0v0h0c0.9,0,1.6-0.1,2.1-0.3c0.4-0.2,0.7-0.4,1-0.7c0.3-0.4,0.5-1.1,0.7-1.9c0.2-1,0.3-2.2,0.3-3.6l0,0
		c0-0.3,0-0.5-0.1-0.7c0,0,0-0.1,0-0.1c-0.1-0.1-0.3-0.1-0.7-0.2c-0.6-0.2-1.4-0.3-2.3-0.4l0,0l-5.3-0.7h0c-2.2-0.3-4-0.9-5.4-2l0,0
		c-0.3-0.2-0.6-0.4-0.8-0.7c-0.3-0.2-0.5-0.5-0.8-0.8l0,0c-0.7-0.8-1.3-1.7-1.7-2.7c-0.1-0.2-0.1-0.4-0.2-0.6
		c-0.4-1.2-0.6-2.6-0.6-4.1h0v0c0-1.6,0.2-3.9,0.6-6.7c0.1-0.8,0.2-1.3,0.2-1.7c0-0.3,0.1-0.9,0.3-1.8l0,0l0,0l0-0.1
		c0.1-0.3,0.1-0.4,0.1-0.4c0,0,0,0,0-0.1l0-0.2l0-0.2L380.5,77l0,0l0.1-0.8l0,0c1.2-5.8,2.2-11.1,2.9-15.7c0.2-1.1,0.3-2,0.4-2.6
		c0.7-5.1,1.1-9.1,1.1-12.2h0v0c0-7.5-1.5-13.8-4.5-18.8c-0.6-1-1.2-1.9-1.9-2.8c-0.7-0.9-1.4-1.7-2.2-2.5l0,0l0,0l0,0
		c-2.4-2.4-5.1-4.3-8.2-5.7c-0.6-0.3-1.2-0.5-1.9-0.8c-4-1.5-8.6-2.2-13.7-2.2v0h0c-4.6,0-8.9,0.5-13,1.5c-4.1,1-7.9,2.5-11.6,4.5
		l0,0c-5.3,2.9-10.7,7.3-16.2,13c-1.1,1.1-2.1,2.3-3.3,3.5c-1.1,1.2-2.2,2.5-3.3,3.8l-2.8,3.5l-1-4.4c-1-4.4-2.3-8.3-4.1-11.5
		c-1.7-3.2-3.9-5.8-6.4-7.8l0,0c-2.6-2-5.6-3.6-9-4.6c-3.5-1.1-7.6-1.6-12.1-1.6c-4.6,0-8.9,0.5-13,1.5c-4.1,1-7.9,2.5-11.6,4.5l0,0
		c-3.7,2-7.5,4.7-11.3,8.1c-3.9,3.4-7.9,7.6-12.1,12.4l-5.3,6.1l1.6-7.9l4.2-21.3v-0.4c0-0.2,0-0.3,0-0.3c0,0,0,0,0,0
		c0,0-0.1-0.1-0.2-0.1c-0.2-0.1-0.4-0.1-0.7-0.1l-0.7,0l-5.5,0.7l-0.1,0c-2.8,0.2-5.7,0.4-8.8,0.6c-2.9,0.2-6,0.3-9.1,0.4h0
		c-3.1,0.1-6.2,0.2-9.5,0.2c-3.6,0.1-7,0.1-10.1,0.1l-8.9,0c-1.6,0-2.6,0.2-3.2,0.6c-0.1,0-0.1,0.1-0.1,0.1c0,0,0,0,0,0l0,0l0,0
		c-0.2,0.4-0.4,1.1-0.5,2.1c-0.2,1.2-0.2,2.7-0.2,4.5c0.1,0.1,0.1,0.1,0.2,0.2l0.1,0.1c0.1,0.1,0.2,0.2,0.3,0.2c0.1,0,0,0,0.1,0
		c0,0,0,0,0.1,0l0,0c0.2-0.1,0.5-0.2,0.8-0.2c0.3-0.1,0.5-0.1,0.8-0.1l0,0c0.3,0,0.5-0.1,0.8-0.1l0.1,0l0.1,0l5.4,0.5
		c1.8,0.1,3.3,0.3,4.7,0.8c1.5,0.5,2.7,1.3,3.7,2.3l0,0c1,1,1.8,2.3,2.3,3.7c0.5,1.4,0.7,2.9,0.7,4.6c0,0.6,0,1.3-0.1,2.1
		c-0.1,0.9-0.1,1.7-0.2,2.5l0,0.1C184.2,42.3,184.1,43.2,183.9,44.2L183.9,44.2z"/>
</g>
</svg>
